<svg viewBox="0 0 566 565" xmlns="http://www.w3.org/2000/svg"><circle style="--animation-order: 1" fill="#f4f1d0" cx="48.5" cy="48.5" r="48.5"/><circle style="--animation-order: 1" fill-opacity=".2" fill="#000" cx="166.5" cy="48.5" r="48.5"/><circle style="--animation-order: 1" fill="#f4f1d0" cx="283.5" cy="48.5" r="48.5"/><circle style="--animation-order: 1" fill-opacity=".2" fill="#000" cx="400.5" cy="48.5" r="48.5"/><circle style="--animation-order: 1" fill-opacity=".2" fill="#000" cx="517.5" cy="48.5" r="48.5"/><circle style="--animation-order: 2" fill-opacity=".2" fill="#000" cx="48.5" cy="165.5" r="48.5"/><circle style="--animation-order: 2" fill-opacity=".2" fill="#000" cx="166.5" cy="165.5" r="48.5"/><circle style="--animation-order: 2" fill-opacity=".2" fill="#000" cx="283.5" cy="165.5" r="48.5"/><circle style="--animation-order: 2" fill="#f4f1d0" cx="400.5" cy="165.5" r="48.5"/><circle style="--animation-order: 2" fill-opacity=".2" fill="#000" cx="517.5" cy="165.5" r="48.5"/><circle style="--animation-order: 3" fill-opacity=".2" fill="#000" cx="48.5" cy="282.5" r="48.5"/><circle style="--animation-order: 3" fill-opacity=".2" fill="#000" cx="166.5" cy="282.5" r="48.5"/><circle style="--animation-order: 3" fill="#f4f1d0" cx="283.5" cy="282.5" r="48.5"/><circle style="--animation-order: 3" fill-opacity=".2" fill="#000" cx="400.5" cy="282.5" r="48.5"/><circle style="--animation-order: 3" fill-opacity=".2" fill="#000" cx="517.5" cy="282.5" r="48.5"/><circle style="--animation-order: 4" fill="#f4f1d0" cx="48.5" cy="399.5" r="48.5"/><circle style="--animation-order: 4" fill-opacity=".2" fill="#000" cx="166.5" cy="399.5" r="48.5"/><circle style="--animation-order: 4" fill-opacity=".2" fill="#000" cx="283.5" cy="399.5" r="48.5"/><circle style="--animation-order: 4" fill-opacity=".2" fill="#000" cx="400.5" cy="399.5" r="48.5"/><circle style="--animation-order: 4" fill="#f4f1d0" cx="517.5" cy="399.5" r="48.5"/><circle style="--animation-order: 5" fill-opacity=".2" fill="#000" cx="48.5" cy="516.5" r="48.5"/><circle style="--animation-order: 5" fill="#f4f1d0" cx="166.5" cy="516.5" r="48.5"/><circle style="--animation-order: 5" fill-opacity=".2" fill="#000" cx="283.5" cy="516.5" r="48.5"/><circle style="--animation-order: 5" fill-opacity=".2" fill="#000" cx="400.5" cy="516.5" r="48.5"/><circle style="--animation-order: 5" fill-opacity=".2" fill="#000" cx="517.5" cy="516.5" r="48.5"/></svg>