<svg xmlns="http://www.w3.org/2000/svg" viewBox="0 0 565 564"><circle style="--animation-order: 1" cx="34" cy="34" r="34" fill="#000" fill-opacity=".2"/><circle style="--animation-order: 1" cx="118" cy="34" r="34" fill="#000" fill-opacity=".2"/><circle style="--animation-order: 1" cx="199" cy="34" r="34" fill="#000" fill-opacity=".2"/><circle style="--animation-order: 1" cx="283" cy="34" r="34" fill="#000" fill-opacity=".2"/><circle style="--animation-order: 1" cx="365" cy="34" r="34" fill="#000" fill-opacity=".2"/><circle style="--animation-order: 1" cx="449" cy="34" r="34" fill="#000" fill-opacity=".2"/><circle style="--animation-order: 1" cx="531" cy="34" r="34" fill="#000" fill-opacity=".2"/><circle style="--animation-order: 2" cx="34" cy="117" r="34" fill="#000" fill-opacity=".2"/><circle style="--animation-order: 2" cx="118" cy="117" r="34" fill="#000" fill-opacity=".2"/><circle style="--animation-order: 2" cx="199" cy="117" r="34" fill="#000" fill-opacity=".2"/><circle style="--animation-order: 2" cx="283" cy="117" r="34" fill="#000" fill-opacity=".2"/><circle style="--animation-order: 2" cx="365" cy="117" r="34" fill="#000" fill-opacity=".2"/><circle style="--animation-order: 2" cx="449" cy="117" r="34" fill="#000" fill-opacity=".2"/><circle style="--animation-order: 2" cx="531" cy="117" r="34" fill="#000" fill-opacity=".2"/><circle style="--animation-order: 3" cx="34" cy="199" r="34" fill="#000" fill-opacity=".2"/><circle style="--animation-order: 3" cx="118" cy="199" r="34" fill="#000" fill-opacity=".2"/><circle style="--animation-order: 3" cx="199" cy="199" r="34" fill="#000" fill-opacity=".2"/><circle style="--animation-order: 3" cx="283" cy="199" r="34" fill="#000" fill-opacity=".2"/><circle style="--animation-order: 3" cx="365" cy="199" r="34" fill="#000" fill-opacity=".2"/><circle style="--animation-order: 3" cx="449" cy="199" r="34" fill="#000" fill-opacity=".2"/><circle style="--animation-order: 3" cx="531" cy="199" r="34" fill="#000" fill-opacity=".2"/><circle style="--animation-order: 4" cx="34" cy="282" r="34" fill="#f4f1d0" fill-opacity=".25"/><circle style="--animation-order: 4" cx="118" cy="282" r="34" fill="#f4f1d0" fill-opacity=".5"/><circle style="--animation-order: 4" cx="199" cy="282" r="34" fill="#f4f1d0"/><circle style="--animation-order: 4" cx="283" cy="282" r="34" fill="#f4f1d0"/><circle style="--animation-order: 4" cx="365" cy="282" r="34" fill="#f4f1d0"/><circle style="--animation-order: 4" cx="449" cy="282" r="34" fill="#f4f1d0" fill-opacity=".5"/><circle style="--animation-order: 4" cx="531" cy="282" r="34" fill="#f4f1d0" fill-opacity=".25"/><circle style="--animation-order: 3" cx="34" cy="365" r="34" fill="#000" fill-opacity=".2"/><circle style="--animation-order: 3" cx="118" cy="365" r="34" fill="#000" fill-opacity=".2"/><circle style="--animation-order: 3" cx="199" cy="365" r="34" fill="#000" fill-opacity=".2"/><circle style="--animation-order: 3" cx="283" cy="365" r="34" fill="#000" fill-opacity=".2"/><circle style="--animation-order: 3" cx="365" cy="365" r="34" fill="#000" fill-opacity=".2"/><circle style="--animation-order: 3" cx="449" cy="365" r="34" fill="#000" fill-opacity=".2"/><circle style="--animation-order: 3" cx="531" cy="365" r="34" fill="#000" fill-opacity=".2"/><circle style="--animation-order: 2" cx="34" cy="448" r="34" fill="#000" fill-opacity=".2"/><circle style="--animation-order: 2" cx="118" cy="448" r="34" fill="#000" fill-opacity=".2"/><circle style="--animation-order: 2" cx="199" cy="448" r="34" fill="#000" fill-opacity=".2"/><circle style="--animation-order: 2" cx="283" cy="448" r="34" fill="#000" fill-opacity=".2"/><circle style="--animation-order: 2" cx="365" cy="448" r="34" fill="#000" fill-opacity=".2"/><circle style="--animation-order: 2" cx="449" cy="448" r="34" fill="#000" fill-opacity=".2"/><circle style="--animation-order: 2" cx="531" cy="448" r="34" fill="#000" fill-opacity=".2"/><circle style="--animation-order: 1" cx="34" cy="530" r="34" fill="#000" fill-opacity=".2"/><circle style="--animation-order: 1" cx="118" cy="530" r="34" fill="#000" fill-opacity=".2"/><circle style="--animation-order: 1" cx="199" cy="530" r="34" fill="#000" fill-opacity=".2"/><circle style="--animation-order: 1" cx="283" cy="530" r="34" fill="#000" fill-opacity=".2"/><circle style="--animation-order: 1" cx="365" cy="530" r="34" fill="#000" fill-opacity=".2"/><circle style="--animation-order: 1" cx="449" cy="530" r="34" fill="#000" fill-opacity=".2"/><circle style="--animation-order: 1" cx="531" cy="530" r="34" fill="#000" fill-opacity=".2"/></svg>