<svg xmlns="http://www.w3.org/2000/svg" viewBox="0 0 566 565"><circle style="--animation-order: 1" cx="48.5" cy="48.5" r="48.5" fill="#f4f1d0"/><circle style="--animation-order: 1" cx="166.5" cy="48.5" r="48.5" fill="#000" fill-opacity=".2"/><circle style="--animation-order: 1" cx="283.5" cy="48.5" r="48.5" fill="#000" fill-opacity=".2"/><circle style="--animation-order: 1" cx="400.5" cy="48.5" r="48.5" fill="#000" fill-opacity=".2"/><circle style="--animation-order: 1" cx="517.5" cy="48.5" r="48.5" fill="#000" fill-opacity=".2"/><circle style="--animation-order: 2" cx="48.5" cy="165.5" r="48.5" fill="#000" fill-opacity=".2"/><circle style="--animation-order: 2" cx="166.5" cy="165.5" r="48.5" fill="#f4f1d0"/><circle style="--animation-order: 2" cx="283.5" cy="165.5" r="48.5" fill="#000" fill-opacity=".2"/><circle style="--animation-order: 2" cx="400.5" cy="165.5" r="48.5" fill="#000" fill-opacity=".2"/><circle style="--animation-order: 2" cx="517.5" cy="165.5" r="48.5" fill="#000" fill-opacity=".2"/><circle style="--animation-order: 3" cx="48.5" cy="282.5" r="48.5" fill="#000" fill-opacity=".2"/><circle style="--animation-order: 3" cx="166.5" cy="282.5" r="48.5" fill="#000" fill-opacity=".2"/><circle style="--animation-order: 3" cx="283.5" cy="282.5" r="48.5" fill="#f4f1d0"/><circle style="--animation-order: 3" cx="400.5" cy="282.5" r="48.5" fill="#000" fill-opacity=".2"/><circle style="--animation-order: 3" cx="517.5" cy="282.5" r="48.5" fill="#000" fill-opacity=".2"/><circle style="--animation-order: 2" cx="48.5" cy="399.5" r="48.5" fill="#000" fill-opacity=".2"/><circle style="--animation-order: 2" cx="166.5" cy="399.5" r="48.5" fill="#000" fill-opacity=".2"/><circle style="--animation-order: 2" cx="283.5" cy="399.5" r="48.5" fill="#000" fill-opacity=".2"/><circle style="--animation-order: 2" cx="400.5" cy="399.5" r="48.5" fill="#f4f1d0"/><circle style="--animation-order: 2" cx="517.5" cy="399.5" r="48.5" fill="#000" fill-opacity=".2"/><circle style="--animation-order: 1" cx="48.5" cy="516.5" r="48.5" fill="#000" fill-opacity=".2"/><circle style="--animation-order: 1" cx="166.5" cy="516.5" r="48.5" fill="#000" fill-opacity=".2"/><circle style="--animation-order: 1" cx="283.5" cy="516.5" r="48.5" fill="#000" fill-opacity=".2"/><circle style="--animation-order: 1" cx="400.5" cy="516.5" r="48.5" fill="#000" fill-opacity=".2"/><circle style="--animation-order: 1" cx="517.5" cy="516.5" r="48.5" fill="#f4f1d0"/></svg>