<svg xmlns="http://www.w3.org/2000/svg" viewBox="0 0 566 569" xmlns:xlink="http://www.w3.org/1999/xlink"><rect style="--animation-order: 1" fill="#f4f1d0" x="0" y="0" width="122" height="122"/><rect style="--animation-order: 1" fill="#000" fill-opacity=".2" x="148" y="0" width="122" height="122"/><rect style="--animation-order: 1" fill="#000" fill-opacity=".2" x="295" y="0" width="122" height="122"/><rect style="--animation-order: 1" fill="#000" fill-opacity=".2" x="444" y="0" width="122" height="122"/><rect style="--animation-order: 2" fill="#000" fill-opacity=".2" x="0" y="149" width="122" height="122"/><rect style="--animation-order: 2" fill="#000" fill-opacity=".2" x="148" y="149" width="122" height="122"/><rect style="--animation-order: 2" fill="#000" fill-opacity=".2" x="295" y="149" width="122" height="122"/><rect style="--animation-order: 2" fill="#000" fill-opacity=".2" x="444" y="149" width="122" height="122"/><rect style="--animation-order: 2" fill="#000" fill-opacity=".2" x="0" y="298" width="122" height="122"/><rect style="--animation-order: 2" fill="#000" fill-opacity=".2" x="148" y="298" width="122" height="122"/><rect style="--animation-order: 2" fill="#000" fill-opacity=".2" x="295" y="298" width="122" height="122"/><rect style="--animation-order: 2" fill="#000" fill-opacity=".2" x="444" y="298" width="122" height="122"/><rect style="--animation-order: 1" fill="#000" fill-opacity=".2" x="0" y="447" width="122" height="122"/><rect style="--animation-order: 1" fill="#000" fill-opacity=".2" x="148" y="447" width="122" height="122"/><rect style="--animation-order: 1" fill="#000" fill-opacity=".2" x="295" y="447" width="122" height="122"/><rect style="--animation-order: 1" fill="#f4f1d0" x="444" y="447" width="122" height="122"/></svg>